<?xml version="1.0" standalone="no"?>
<!DOCTYPE svg PUBLIC "-//W3C//DTD SVG 20010904//EN"
 "http://www.w3.org/TR/2001/REC-SVG-20010904/DTD/svg10.dtd">
<svg version="1.0" xmlns="http://www.w3.org/2000/svg"
 width="714.000000pt" height="294.000000pt" viewBox="0 0 714.000000 294.000000"
 preserveAspectRatio="xMidYMid meet">

<g transform="translate(0.000000,294.000000) scale(0.100000,-0.100000)"
fill="#000000" stroke="none">
<path d="M0 1470 l0 -1470 3570 0 3570 0 0 1470 0 1470 -3570 0 -3570 0 0
-1470z m1555 1313 c3 -10 135 -371 291 -803 157 -432 303 -832 324 -890 113
-307 330 -910 330 -919 0 -8 -57 -11 -191 -9 l-192 3 -132 390 -132 390 -525
3 -525 2 -56 -152 c-30 -84 -95 -262 -143 -396 l-88 -242 -178 0 c-111 0 -178
4 -178 10 0 8 201 547 567 1515 52 138 167 445 256 682 l162 433 201 0 c183 0
202 -2 209 -17z m5065 -1253 l0 -140 140 0 140 0 0 -75 0 -75 -202 0 -203 0
41 -19 c22 -10 50 -31 62 -46 22 -28 22 -30 22 -516 l0 -489 -130 0 -130 0 0
535 0 535 -392 -1 c-296 -1 -385 -4 -359 -12 18 -6 49 -25 67 -42 l34 -32 0
-492 0 -491 -130 0 -130 0 0 610 0 610 130 0 130 0 0 -40 c0 -22 5 -40 10 -40
6 0 10 4 10 8 0 5 24 22 53 38 l52 29 260 5 260 5 0 138 0 137 133 0 132 0 0
-140z m-2670 -147 c0 -6 -238 -475 -437 -860 l-105 -203 251 0 251 0 0 -75 0
-75 -414 0 -415 0 23 53 c13 28 130 265 260 525 130 260 236 477 236 482 0 6
-86 10 -225 10 l-225 0 0 75 0 75 400 0 c220 0 400 -3 400 -7z m1068 -27 c30
-17 63 -44 75 -60 22 -31 22 -34 25 -578 l2 -548 -348 0 c-392 0 -423 4 -493
67 -21 19 -44 51 -50 72 -6 22 -9 111 -7 232 l3 196 27 36 c16 20 53 48 85 64
57 27 61 28 233 28 160 0 179 -2 224 -22 27 -13 53 -23 57 -23 6 0 8 90 7 208
l-3 207 -255 2 c-196 1 -247 -1 -221 -10 18 -6 49 -25 67 -42 32 -30 34 -36
34 -99 l0 -66 -130 0 -130 0 0 105 c0 68 5 117 14 138 19 45 64 84 122 107 45
18 72 19 329 17 l280 -2 53 -29z"/>
<path d="M1319 2374 c-6 -16 -28 -76 -49 -134 -21 -58 -78 -211 -125 -340 -48
-129 -91 -246 -95 -260 -4 -14 -38 -105 -74 -203 -36 -98 -66 -182 -66 -188 0
-5 158 -9 410 -9 235 0 410 4 410 9 0 5 -39 121 -86 257 -93 269 -190 553
-260 758 -24 71 -46 131 -49 134 -2 3 -10 -8 -16 -24z"/>
<path d="M4410 686 c70 -36 80 -65 80 -229 l0 -137 183 2 182 3 3 193 2 192
-247 0 -248 0 45 -24z"/>
</g>
</svg>
